<svg width="16" height="16" viewBox="0 0 16 16" fill="none" xmlns="http://www.w3.org/2000/svg">
<path d="M9.75 0.499878C11.1358 0.499878 12.2758 0.49817 13.1748 0.619019C14.1026 0.743762 14.922 1.01564 15.5781 1.67175C16.2342 2.32786 16.5061 3.14724 16.6309 4.07507C16.7517 4.97411 16.75 6.11404 16.75 7.49988V9.99988C16.75 10.4325 16.7522 10.746 16.7158 11.0223C16.4794 12.817 15.0671 14.2293 13.2725 14.4657C13.2383 14.4702 13.2116 14.4959 13.2097 14.5303C13.1923 14.8511 13.1679 15.1492 13.1309 15.4247C13.0061 16.3525 12.7342 17.1719 12.0781 17.828C11.422 18.4841 10.6026 18.756 9.6748 18.8807C8.77577 19.0016 7.63584 18.9999 6.25 18.9999C4.86416 18.9999 3.72423 19.0016 2.8252 18.8807C1.89737 18.756 1.07798 18.4841 0.421875 17.828C-0.234195 17.1719 -0.506119 16.3525 -0.630859 15.4247C-0.751694 14.5257 -0.75 13.3857 -0.75 11.9999C-0.75 10.6141 -0.751705 9.47408 -0.630859 8.57507C-0.50611 7.64728 -0.23421 6.82784 0.421875 6.17175C0.858171 5.73547 1.36673 5.46939 1.93133 5.30337C2.39538 5.16693 2.74832 4.77248 2.78125 4.28992C2.81329 3.82076 2.88165 3.38634 3.05469 2.96863C3.46065 1.98893 4.23905 1.21053 5.21875 0.804565C5.63647 0.631526 6.07088 0.563165 6.54004 0.531128C7.00035 0.499718 7.56477 0.499878 8.25 0.499878H9.75ZM6.25 6.99988C4.80779 6.99988 3.82657 7.00172 3.0918 7.10046C2.38579 7.19538 2.05851 7.36327 1.83594 7.58582C1.61338 7.80838 1.44551 8.13569 1.35059 8.84167C1.25185 9.57643 1.25 10.5577 1.25 11.9999C1.25 13.442 1.25186 14.4233 1.35059 15.1581C1.4455 15.8641 1.61339 16.1914 1.83594 16.4139C2.05851 16.6365 2.38576 16.8044 3.0918 16.8993C3.82657 16.998 4.80778 16.9999 6.25 16.9999C7.69222 16.9999 8.67343 16.998 9.4082 16.8993C10.1143 16.8044 10.4415 16.6365 10.6641 16.4139C10.8866 16.1914 11.0545 15.8641 11.1494 15.1581C11.2481 14.4233 11.25 13.442 11.25 11.9999C11.25 10.5577 11.2482 9.57643 11.1494 8.84167C11.0545 8.13569 10.8866 7.80838 10.6641 7.58582C10.4415 7.36327 10.1142 7.19538 9.4082 7.10046C8.67343 7.00173 7.69221 6.99988 6.25 6.99988ZM8.25 2.49988C7.53751 2.49988 7.05318 2.50057 6.67676 2.52625C6.30927 2.55132 6.11788 2.59692 5.98438 2.65222C5.49452 2.8552 5.10533 3.2444 4.90234 3.73425C4.84704 3.86776 4.80144 4.05915 4.77637 4.42664C4.75467 4.74466 5.01859 5.00482 5.33734 5.00263C5.62872 5.00063 5.93292 4.99988 6.25 4.99988C7.63583 4.99988 8.77578 4.99817 9.6748 5.11902C10.6026 5.24376 11.422 5.51568 12.0781 6.17175C12.7342 6.82784 13.0061 7.64728 13.1309 8.57507C13.2517 9.47408 13.25 10.6141 13.25 11.9999C13.25 12.2194 13.4581 12.38 13.654 12.2809C14.2302 11.9891 14.6445 11.4288 14.7324 10.7606C14.7473 10.6471 14.75 10.4957 14.75 9.99988V7.49988C14.75 6.05766 14.7482 5.07645 14.6494 4.34167C14.5545 3.63562 14.3866 3.30839 14.1641 3.08582C13.9415 2.86324 13.6143 2.69539 12.9082 2.60046C12.1734 2.50172 11.1922 2.49988 9.75 2.49988H8.25Z" fill="#383838"/>
</svg>
